PathFileType  4	(X/Y/Z) C:\Users\antoi\Documents\MyRepositories\mobilecap\ResultsAnalysis
DataRate	CameraRate	NumFrames	NumMarkers	Units	OrigDataRate	OrigDataStartFrame	OrigNumFrames
100.0	100.0	4	51	mm	100.0	1	1831
Frame#	Time	r_knee			r_shank_antsup			r_ankle			r_calc			r_5meta			r_toe			L_knee			L_shank_antsup			L_ankle			L_calc			L_5meta			L_toe			r_sh2			r_sh3			r_sh4			L_sh2			L_sh3			r_thigh1			r_thigh2			r_thigh3			r_thigh4			r_thigh5			L_thigh1			L_thigh2			L_thigh3			L_thigh4			r.ASIS			r.PSIS			L.ASIS			L.PSIS			C7			R_Shoulder			L_Shoulder			R_Sternum			L_Sternum			R_humerus			R_elbow_med			R_elbow_lat			R_forearm			R_wrist_radius			R_wrist_ulna			L_humerus			L_elbow_med			L_elbow_lat			L_forearm			L_wrist_radius			L_wrist_ulna			R_HJC			L_HJC			R_HJC_reg			L_HJC_reg			
		X1	Y1	Z1	X2	Y2	Z2	X3	Y3	Z3	X4	Y4	Z4	X5	Y5	Z5	X6	Y6	Z6	X7	Y7	Z7	X8	Y8	Z8	X9	Y9	Z9	X10	Y10	Z10	X11	Y11	Z11	X12	Y12	Z12	X13	Y13	Z13	X14	Y14	Z14	X15	Y15	Z15	X16	Y16	Z16	X17	Y17	Z17	X18	Y18	Z18	X19	Y19	Z19	X20	Y20	Z20	X21	Y21	Z21	X22	Y22	Z22	X23	Y23	Z23	X24	Y24	Z24	X25	Y25	Z25	X26	Y26	Z26	X27	Y27	Z27	X28	Y28	Z28	X29	Y29	Z29	X30	Y30	Z30	X31	Y31	Z31	X32	Y32	Z32	X33	Y33	Z33	X34	Y34	Z34	X35	Y35	Z35	X36	Y36	Z36	X37	Y37	Z37	X38	Y38	Z38	X39	Y39	Z39	X40	Y40	Z40	X41	Y41	Z41	X42	Y42	Z42	X43	Y43	Z43	X44	Y44	Z44	X45	Y45	Z45	X46	Y46	Z46	X47	Y47	Z47	X48	Y48	Z48	X49	Y49	Z49	X50	Y50	Z50	X51	Y51	Z51	

1	0.00000000	-281.86603	525.87876	-396.92102	-208.96829	446.54493	-407.57046	-284.49844	123.24546	-424.61619	-369.06195	74.35320	-468.50509	-171.80697	49.11428	-384.13352	-114.95000	78.54405	-447.30844	-295.87052	528.50819	-847.48986	-267.20272	455.24831	-871.75177	-291.22085	125.34037	-824.80688	-367.33022	73.77254	-765.37196	-180.99182	51.20434	-864.47168	-118.60669	81.07472	-805.18018	-224.02483	335.88999	-385.09273	-271.28508	462.71588	-365.97260	-301.78620	351.71260	-360.36512	-356.54780	454.51294	-855.54155	-342.65494	333.42401	-855.07300	-595.93295	580.96510	-419.61528	-489.83783	595.27622	-417.20658	-460.44997	551.00290	-373.51611	-580.88061	471.63828	-398.16081	-467.72518	494.96095	-384.91126	-571.94842	592.51429	-796.02063	-433.19840	611.51557	-810.34374	-563.14332	492.93418	-839.65625	-427.95743	507.16294	-857.04928	-673.78222	632.76146	-476.83182	-843.59326	563.14294	-544.89178	-670.71840	623.51637	-722.83438	-845.70588	560.57482	-652.98472	-751.89428	1132.22753	-594.83406	-672.82451	1069.46602	-429.96180	-712.65911	1071.56660	-768.38196	-629.15404	1041.83411	-572.94824	-635.12251	1038.67100	-628.58649	-673.03593	913.93854	-358.19690	-736.07312	701.67856	-385.69883	-732.46970	740.51436	-301.33309	-574.79750	781.05074	-330.61025	-504.05312	835.04114	-362.45190	-494.90918	791.39986	-346.82443	-744.08411	947.69509	-845.98695	-756.07206	701.46252	-786.96963	-756.81879	728.20134	-871.90415	-684.83251	753.85069	-885.38379	-530.81008	820.59561	-864.66249	-517.99342	782.65854	-872.50981	-695.89287	492.47878	-490.96968	-700.79935	489.09924	-697.84468	-689.07759	531.38277	-508.61911	-692.25185	527.52412	-671.03115	
2	0.01000000	-281.87840	525.88440	-396.95431	-208.99841	446.46447	-407.62904	-284.53921	123.24918	-424.65940	-369.12158	74.29333	-468.41809	-171.80698	49.11286	-384.12834	-114.87322	78.56493	-447.35662	-295.85906	528.49249	-847.50657	-267.20085	455.24526	-871.74794	-291.22109	125.33376	-824.80760	-367.32932	73.69452	-765.29934	-180.99375	51.19514	-864.47219	-118.59837	81.04663	-805.17628	-224.11197	335.89234	-385.16209	-271.31979	462.77822	-366.11242	-301.70432	351.81796	-360.34672	-356.54533	454.51061	-855.54277	-342.61876	333.43674	-855.12021	-595.98765	581.04641	-419.74370	-489.87464	595.32092	-417.23868	-460.44580	551.03773	-373.56982	-581.03524	471.72930	-397.89291	-467.72068	494.97241	-384.92532	-571.90648	592.53488	-796.02496	-433.19364	611.52722	-810.35733	-563.17795	492.90335	-839.56222	-427.95196	507.17610	-857.04875	-673.80380	632.76347	-476.87142	-843.63285	563.16482	-544.79580	-670.63406	623.57944	-722.97076	-845.54099	560.58556	-652.96421	-751.82105	1132.24291	-594.93583	-672.84762	1069.45868	-429.99044	-712.55884	1071.47910	-768.33806	-629.00096	1041.76723	-572.91404	-635.02054	1038.61734	-628.66734	-673.08431	913.93362	-358.23403	-736.21752	701.91554	-385.82352	-732.50816	740.58927	-301.38816	-574.85048	780.97143	-330.66509	-504.03178	834.97404	-362.50103	-494.91467	791.31084	-346.96948	-744.02550	947.62341	-846.06618	-756.01351	701.44742	-786.93364	-756.74569	728.07416	-871.89958	-684.75535	753.81851	-885.38389	-530.76379	820.58847	-864.65052	-517.92899	782.64621	-872.45466	-695.82716	492.51917	-490.98023	-700.73401	489.12946	-697.85506	-689.24272	531.40683	-508.69844	-692.10905	527.53245	-671.17902	
3	0.02000000	-281.86669	525.89793	-396.94987	-209.00694	446.46575	-407.68365	-284.56420	123.23126	-424.68418	-369.14230	74.29433	-468.42239	-171.79922	49.14936	-384.14073	-114.88063	78.55083	-447.36445	-295.86224	528.48621	-847.49732	-267.21333	455.24141	-871.74031	-291.21980	125.32672	-824.80822	-367.38335	73.68178	-765.34760	-180.99518	51.19022	-864.47094	-118.60439	81.04798	-805.19537	-224.10433	335.90835	-385.15419	-271.33429	462.79346	-366.15694	-301.65231	351.78951	-360.35640	-356.54808	454.50963	-855.54345	-342.60510	333.43558	-855.12929	-595.97093	581.09344	-419.78162	-489.88614	595.31918	-417.25247	-460.41406	551.05417	-373.55033	-581.08159	471.78089	-397.80862	-467.72453	494.96696	-385.00507	-571.94476	592.53199	-796.02061	-433.19592	611.53578	-810.36391	-563.23550	492.87605	-839.41264	-427.95508	507.18067	-857.05180	-673.81536	632.77003	-476.85759	-843.64809	563.17257	-544.74308	-670.60705	623.61312	-722.98198	-845.55673	560.59728	-652.98135	-751.72603	1132.24467	-595.03853	-672.81251	1069.47792	-430.03307	-712.40597	1071.49619	-768.56895	-629.38389	1042.07363	-573.56265	-634.99911	1038.77186	-628.96237	-673.08549	913.95261	-358.25280	-736.28235	701.99886	-385.89551	-732.53210	740.59898	-301.42825	-574.86269	780.94313	-330.66676	-504.01436	834.89464	-362.50644	-494.90485	791.21023	-347.01451	-743.89676	947.61941	-846.25131	-755.99660	701.48613	-786.92965	-756.68805	727.99049	-871.92385	-684.68735	753.78258	-885.37933	-530.71051	820.59423	-864.60050	-517.86854	782.62196	-872.38940	-695.83201	492.52776	-490.97613	-700.73484	489.15141	-697.85127	-689.23788	531.41318	-508.69393	-692.10317	527.54682	-671.19095	
4	0.03000000	-281.83282	525.92525	-396.92680	-209.01986	446.49911	-407.73546	-284.57506	123.20883	-424.69021	-369.11831	74.33061	-468.46268	-171.78238	49.18250	-384.14714	-114.92389	78.51511	-447.39526	-295.88145	528.50441	-847.47414	-267.22332	455.24146	-871.73242	-291.21882	125.32394	-824.80562	-367.42268	73.71429	-765.40555	-180.99594	51.19100	-864.46796	-118.61656	81.05711	-805.21329	-224.04952	335.96844	-385.13509	-271.34511	462.75480	-366.16967	-301.65004	351.70712	-360.38792	-356.55794	454.51941	-855.54514	-342.61669	333.42317	-855.10635	-595.93116	581.12346	-419.77709	-489.87058	595.26064	-417.23439	-460.40030	551.05200	-373.51775	-581.01218	471.77424	-397.94507	-467.73186	494.94548	-385.11437	-571.98494	592.51901	-796.02670	-433.22064	611.53982	-810.38567	-563.27561	492.86765	-839.31688	-427.96258	507.18030	-857.05199	-673.82101	632.77712	-476.83346	-843.63713	563.17744	-544.74239	-670.66697	623.57346	-722.81591	-845.66082	560.60227	-652.99832	-751.59360	1132.25166	-595.10308	-672.74519	1069.48233	-430.09728	-712.32009	1071.53837	-768.75133	-629.65638	1042.29526	-574.03961	-634.97774	1038.87240	-629.16719	-673.05867	913.96620	-358.29439	-736.23759	701.89765	-385.86914	-732.53209	740.58505	-301.43987	-574.84331	780.93238	-330.63820	-503.99801	834.82690	-362.49258	-494.90369	791.11063	-346.93212	-743.75710	947.63210	-846.40391	-755.98436	701.57504	-786.86473	-756.63147	727.92026	-871.89137	-684.61899	753.74393	-885.37312	-530.64800	820.60699	-864.51681	-517.81176	782.59866	-872.30685	-695.89576	492.51344	-490.92692	-700.78358	489.13578	-697.80240	-689.17406	531.43069	-508.62867	-692.20977	527.56745	-671.02971	
